<?xml version="1.0" encoding="UTF-8"?>
<!-- Created with Inkscape (http://www.inkscape.org/) -->
<svg width="267.47mm" height="203.43mm" version="1.1" viewBox="0 0 267.47 203.43" xmlns="http://www.w3.org/2000/svg" xmlns:cc="http://creativecommons.org/ns#" xmlns:dc="http://purl.org/dc/elements/1.1/" xmlns:rdf="http://www.w3.org/1999/02/22-rdf-syntax-ns#" xmlns:xlink="http://www.w3.org/1999/xlink">
 <defs>
  <linearGradient id="linearGradient8751-7" x1="1079.7" x2="1195.4" y1="108.8" y2="82.559" gradientTransform="matrix(.26458 0 0 .26458 -310.55 16.118)" gradientUnits="userSpaceOnUse" xlink:href="#radialGradient13581">
   <stop stop-color="#7da684" offset="0"/>
   <stop stop-color="#92b498" offset="1"/>
  </linearGradient>
  <linearGradient id="linearGradient10696" x1="269.19" x2="535.14" y1="110.54" y2="110.54" gradientTransform="matrix(.26458 0 0 .26458 -122.04 10.951)" gradientUnits="userSpaceOnUse">
   <stop stop-color="#295b3c" offset="0"/>
   <stop stop-color="#2e5d40" offset=".30634"/>
   <stop stop-color="#9cb8a4" offset=".63927"/>
   <stop stop-color="#fffdff" offset="1"/>
  </linearGradient>
  <linearGradient id="linearGradient8751" x1="1095" x2="1234.1" y1="103.84" y2="58.925" gradientTransform="matrix(.26458 0 0 .26458 -310.55 16.118)" gradientUnits="userSpaceOnUse">
   <stop stop-color="#7da684" offset="0"/>
   <stop stop-color="#a1bfa7" offset="1"/>
  </linearGradient>
  <linearGradient id="linearGradient8749" x1="687.05" x2="954.42" y1="22.178" y2="22.178" gradientTransform="matrix(.26458 0 0 .26458 -232.77 83.091)" gradientUnits="userSpaceOnUse">
   <stop stop-color="#1c462b" offset="0"/>
   <stop stop-color="#215433" offset=".62346"/>
   <stop stop-color="#386747" offset=".76871"/>
   <stop stop-color="#7d9e83" offset=".94784"/>
   <stop stop-color="#acc1b0" offset="1"/>
  </linearGradient>
  <radialGradient id="radialGradient13561" cx="-108.28" cy="43.694" r="35.371" gradientTransform="matrix(1.0514 -5.3189e-8 2.6648e-8 .52673 74.084 90.792)" gradientUnits="userSpaceOnUse">
   <stop offset="0"/>
   <stop stop-opacity=".64481" offset=".47155"/>
   <stop stop-opacity="0" offset="1"/>
  </radialGradient>
  <radialGradient id="radialGradient13581" cx="-48.126" cy="117.25" r="35.371" gradientTransform="matrix(1.1238,0,0,1.0645,6.0192,2.7999)" gradientUnits="userSpaceOnUse">
   <stop offset="0"/>
   <stop stop-opacity="0" offset="1"/>
  </radialGradient>
  <filter id="filter6297" x="-.0043782" y="-.00953" width="1.0088" height="1.0191" color-interpolation-filters="sRGB">
   <feGaussianBlur stdDeviation="0.37724469"/>
  </filter>
  <clipPath id="clipPath6445">
   <path d="m98.6 42.776-98.6 100.15 176.9 41.394v19.106l90.572-106.39v-17.962z" fill="#c6c6c6" fill-rule="evenodd"/>
  </clipPath>
 </defs>
 <metadata>
  <rdf:RDF>
   <cc:Work rdf:about="">
    <dc:format>image/svg+xml</dc:format>
    <dc:type rdf:resource="http://purl.org/dc/dcmitype/StillImage"/>
    <dc:title/>
   </cc:Work>
  </rdf:RDF>
 </metadata>
 <g transform="translate(221.43,-22.173)" fill-rule="evenodd">
  <path d="m-122.83 64.949-98.6 100.15v18.591l176.9 41.909 90.572-106.39v-17.962z" fill="#c6c6c6"/>
  <path d="m-221.43 183.69 176.9 41.909v-19.106l-176.9-41.394z" fill-opacity=".255"/>
  <path d="m-89.044 72.211-18.365 19.145 33.435 7.3065 18.066-19.328zm15.07 26.451-18.972 20.296 34.714 7.7163 18.648-20.498zm34.39 7.5148 34.038 7.4383 17.443-19.705-33.727-7.2502zm34.038 7.4383-18.322 20.698 34.802 7.7354v18.406l17.988-21.129v-18.178zm-18.322 20.698-34.364-7.6388-18.6 20.446 34.686 7.8409zm-18.278 20.648-18.825 21.266 35.472 8.1566v18.866l18.486-21.714v-18.632zm-18.825 21.266-35.016-8.0522-19.71 21.665v18.899l35.352 8.3752v-19.002zm-35.016-8.0522 19.154-21.055-35.036-7.9199-19.482 20.843zm-35.363-8.1318-34.368-7.9034-20.366 21.23v18.693l34.689 8.2186v-18.795zm-34.368-7.9034 19.796-20.637-34.703-7.845-20.112 20.429zm19.796-20.637 34.054 7.6977 18.922-20.243-33.746-7.5008zm19.23-20.046 19.284-20.102-34.082-7.4476-19.596 19.904z" fill-opacity=".43922"/>
  <path d="m-44.527 225.6 90.572-106.39v-17.962l-90.572 105.24z" fill="#fff" fill-opacity=".3"/>
 </g>
 <g transform="translate(0,-1.6e-4)" clip-path="url(#clipPath6445)" fill-opacity=".015686" fill-rule="evenodd" filter="url(#filter6297)">
  <path d="m219.78 114.34-176.86 62.053c-8.9489 3.1397-25.512-26.292-28.582-42.893-2.6269-14.206-2.3089-43.297 9.2459-43.839l171.24-8.0391"/>
  <path d="m219.78 114.34s-171.87 58.236-171.87 58.236c-8.4423 2.8954-24.02-24.754-26.91-40.385-2.4733-13.376-2.1663-40.696 8.7053-41.276 0 0 165.12-9.2945 165.12-9.2945"/>
  <path d="m219.78 114.34s-169.16 56.167-169.16 56.167c-8.1676 2.7629-23.211-23.921-26.004-39.025-2.39-12.925-2.0889-39.285 8.4121-39.886l161.8-9.9752"/>
  <path d="m219.78 114.34s-166.94 54.47-166.94 54.47c-7.9423 2.6543-22.548-23.237-25.261-37.909-2.3217-12.556-2.0255-38.128 8.1717-38.746l159.08-10.534"/>
  <path d="m219.78 114.34s-164.99 52.976-164.99 52.976c-7.744 2.5586-21.964-22.635-24.607-36.928-2.2616-12.231-1.9697-37.11 7.96-37.742l156.68-11.025"/>
  <path d="m219.78 114.34s-163.21 51.618-163.21 51.618c-7.5637 2.4717-21.433-22.088-24.012-36.035-2.2069-11.935-1.9189-36.185 7.7676-36.83l154.5-11.472"/>
  <path d="m219.78 114.34-161.56 50.358c-7.3965 2.391-20.94-21.58-23.46-35.207-2.1562-11.661-1.8718-35.326 7.5892-35.984l152.48-11.886"/>
  <path d="m219.78 114.34-160.02 49.176c-7.2395 2.3153-20.478-21.104-22.942-34.43-2.1086-11.403-1.8276-34.52 7.4216-35.189l150.58-12.275"/>
  <path d="m219.78 114.34-158.55 48.055c-7.0907 2.2436-20.04-20.652-22.451-33.693-2.0635-11.159-1.7857-33.756 7.2628-34.436l148.78-12.644"/>
  <path d="m219.78 114.34s-157.15 46.986-157.15 46.986c-6.9488 2.1751-19.622-20.222-21.983-32.99-2.0204-10.926-1.7457-33.027 7.1113-33.718l147.07-12.996"/>
  <path d="m219.78 114.34s-155.81 45.96-155.81 45.96c-6.8126 2.1095-19.221-19.808-21.534-32.316-1.9792-10.703-1.7074-32.328 6.966-33.029l145.42-13.333"/>
  <path d="m219.78 114.34s-154.52 44.972-154.52 44.972c-6.6815 2.0462-18.835-19.411-21.101-31.667-1.9394-10.488-1.6705-31.655 6.8261-32.366l143.84-13.658"/>
  <path d="m219.78 114.34s-153.27 44.018-153.27 44.018c-6.5548 1.9851-18.462-19.026-20.683-31.04-1.901-10.28-1.6348-31.004 6.6909-31.724l142.31-13.972"/>
  <path d="m219.78 114.34-152.06 43.092c-6.432 1.9259-18.1-18.653-20.278-30.432-1.8637-10.079-1.6002-30.374 6.5598-31.103l140.82-14.276"/>
  <path d="m219.78 114.34-150.88 42.194c-6.3126 1.8683-17.749-18.291-19.884-29.841-1.8276-9.8834-1.5666-29.761 6.4324-30.499 0 0 139.38-14.572 139.38-14.572"/>
  <path d="m219.78 114.34-149.74 41.318c-6.1965 1.8123-17.407-17.939-19.501-29.266-1.7923-9.6929-1.5339-29.165 6.3085-29.911l137.97-14.86"/>
  <path d="m219.78 114.34-148.62 40.465c-6.0832 1.7577-17.073-17.595-19.127-28.705-1.758-9.5071-1.502-28.583 6.1876-29.338l136.6-15.141"/>
  <path d="m219.78 114.34s-147.53 39.631-147.53 39.631c-5.9725 1.7043-16.747-17.259-18.762-28.157-1.7244-9.3257-1.4708-28.015 6.0695-28.778l135.27-15.415"/>
  <path d="m219.78 114.34-146.46 38.816c-5.8643 1.6521-16.428-16.93-18.405-27.621-1.6916-9.1482-1.4403-27.459 5.9539-28.23l133.96-15.683"/>
  <path d="m219.78 114.34-145.42 38.017c-5.7582 1.601-16.116-16.609-18.055-27.096-1.6595-8.9743-1.4105-26.914 5.8408-27.694l132.68-15.946"/>
  <path d="m219.78 114.34-144.39 37.234c-5.6543 1.5508-15.81-16.293-17.712-26.581-1.6279-8.8038-1.3812-26.381 5.7298-27.168l131.42-16.204"/>
  <path d="m219.78 114.34-143.39 36.466c-5.5523 1.5016-15.51-15.984-17.376-26.076-1.597-8.6366-1.3525-25.857 5.621-26.652l130.19-16.456"/>
  <path d="m219.78 114.34-142.4 35.711c-5.4521 1.4533-15.215-15.68-17.045-25.58-1.5666-8.4723-1.3243-25.342 5.514-26.145 0 0 128.98-16.705 128.98-16.705"/>
  <path d="m219.78 114.34-141.43 34.969c-5.3536 1.4058-14.924-15.381-16.72-25.092-1.5368-8.3107-1.2965-24.837 5.4089-25.646l127.79-16.949"/>
  <path d="m219.78 114.34-140.47 34.239c-5.2567 1.3591-14.639-15.087-16.401-24.613-1.5074-8.1518-1.2692-24.339 5.3055-25.156l126.61-17.189"/>
  <path d="m219.78 114.34-139.53 33.52c-5.1612 1.313-14.358-14.797-16.086-24.14-1.4784-7.9953-1.2424-23.849 5.2036-24.673l125.46-17.426"/>
  <path d="m219.78 114.34-138.61 32.812c-5.0672 1.2677-14.081-14.512-15.776-23.675-1.4499-7.8412-1.2159-23.367 5.1033-24.197l124.32-17.658"/>
  <path d="m219.78 114.34-137.69 32.114c-4.9746 1.223-13.809-14.231-15.47-23.216-1.4218-7.6893-1.1898-22.891 5.0044-23.728 0 0 123.2-17.888 123.2-17.888"/>
  <path d="m219.78 114.34-136.79 31.426c-4.8832 1.179-13.539-13.953-15.169-22.764-1.3941-7.5395-1.1641-22.422 4.9069-23.266 0 0 122.1-18.114 122.1-18.114"/>
  <path d="m219.78 114.34s-135.9 30.747-135.9 30.747c-4.7931 1.1355-13.274-13.68-14.871-22.317-1.3668-7.3916-1.1387-21.959 4.8107-22.81l121.01-18.338"/>
  <path d="m219.78 114.34-135.03 30.076c-4.7041 1.0926-13.012-13.41-14.578-21.877-1.3398-7.2457-1.1136-21.502 4.7157-22.36l119.93-18.558"/>
  <path d="m219.78 114.34-134.16 29.414c-4.6162 1.0502-12.753-13.143-14.288-21.442-1.3132-7.1016-1.0889-21.051 4.6219-21.915l118.87-18.776"/>
  <path d="m219.78 114.34-133.3 28.76c-4.5294 1.0083-12.497-12.879-14.001-21.012-1.2868-6.9592-1.0644-20.605 4.5293-21.475l117.82-18.991"/>
  <path d="m219.78 114.34s-132.46 28.114-132.46 28.114c-4.4435 0.96692-12.245-12.619-13.718-20.587-1.2608-6.8185-1.0402-20.164 4.4377-21.041l116.79-19.204"/>
  <path d="m219.78 114.34-131.62 27.474c-4.3587 0.92599-11.995-12.361-13.438-20.167-1.2351-6.6793-1.0164-19.728 4.3471-20.612l115.76-19.414"/>
  <path d="m219.78 114.34s-130.8 26.842-130.8 26.842c-4.2748 0.88552-11.748-12.107-13.161-19.751-1.2096-6.5417-0.99272-19.298 4.2576-20.187l114.75-19.622"/>
  <path d="m219.78 114.34-129.98 26.217c-4.1917 0.84548-11.503-11.855-12.887-19.34-1.1845-6.4056-0.96934-18.871 4.169-19.767l113.74-19.828"/>
 </g>
 <path d="m131.15 65.775 10.827-6.4947 1.3907 0.30265-3.0883 8.1788-1.4706-0.32003 1.0066-2.4615-4.0791-0.88768-3.2159 1.9808zm5.7224-2.3892 3.3072 0.7197 0.9429-2.246q0.42775-1.0238 0.77628-1.6664-0.86735 0.66252-1.8781 1.2818z" fill="#505050" stroke-width=".32452"/>
 <path d="m128.93 113.7 7.0726-7.6641 3.8575 0.82134q1.1783 0.25088 1.6696 0.63696 0.50312 0.38235 0.45423 0.95366-0.037 0.56758-0.5243 1.0956-0.4535 0.49142-1.2116 0.84918-0.75812 0.35775-1.7266 0.47056 0.74467 0.4025 0.78915 0.99995 0.0515 0.59894-0.56602 1.2681-0.49692 0.53848-1.2349 0.93805-0.72613 0.39584-1.4066 0.55121-0.68044 0.15536-1.4814 0.1412-0.7891-0.0179-1.771-0.22696zm5.4614-4.154 2.2233 0.47339q0.90476 0.19264 1.3795 0.18739 0.62514-4e-3 1.1307-0.21587 0.51256-0.20988 0.88404-0.61243 0.35218-0.38163 0.37205-0.72143 0.0247-0.34503-0.33471-0.54666-0.35458-0.20685-1.4627-0.4428l-2.055-0.43755zm-3.2661 3.5393 2.56 0.54507q0.65929 0.14037 0.95957 0.16053 0.52781 0.0373 0.97851-0.0419 0.45069-0.0792 0.90979-0.31295 0.46391-0.239 0.80161-0.60495 0.3956-0.42869 0.39049-0.80509-2.9e-4 -0.38162-0.41052-0.61909-0.3984-0.2412-1.3803-0.45027l-2.3776-0.50624z" fill="#505050" stroke-width=".33913"/>
 <g transform="translate(221.43,-22.173)" fill-rule="evenodd">
  <ellipse transform="rotate(-9.2928)" cx="-39.758" cy="113.8" rx="39.056" ry="19.567" fill="url(#radialGradient13561)" opacity=".577"/>
  <path d="m19.758 39.894h-70.742c2.6e-4 9.787-2.4e-4 70.621 0 80.409 2.6e-4 9.787 15.837 17.721 35.371 17.721 19.535-1.3e-4 35.371-7.934 35.371-17.721z" fill="url(#linearGradient8749)"/>
  <ellipse cx="-15.613" cy="39.894" rx="35.371" ry="17.721" fill="url(#linearGradient8751)"/>
  <path d="m-15.613 56.697h2.9e-5c8.7588-0.01167 17.266-1.2918 24.742-4.8104 2.9106-1.3739 5.5654-3.0413 7.611-5.2965 1.721-1.9006 2.9039-4.2359 3.0187-6.6961 0.11494 2.4627-0.87884 4.9934-2.5406 7.0997-1.9568 2.4857-4.6156 4.4149-7.5498 5.9693-7.5319 4.0005-16.321 5.5821-25.281 5.5704h-3.1e-5c-8.9596 0.01167-17.749-1.5699-25.281-5.5704-2.9342-1.5544-5.593-3.4836-7.5498-5.9693-1.6618-2.1063-2.6555-4.637-2.5406-7.0998 0.11481 2.4601 1.2977 4.7954 3.0187 6.6961 2.0455 2.2552 4.7004 3.9226 7.611 5.2965 7.4753 3.5186 15.983 4.7988 24.742 4.8104z" fill="url(#linearGradient10696)"/>
  <ellipse cx="-15.613" cy="39.894" rx="35.371" ry="17.721" fill="url(#linearGradient8751-7)"/>
  <path d="m19.758 39.894h-70.742c2.6e-4 9.787-2.4e-4 70.621 0 80.409 2.6e-4 9.787 15.837 17.721 35.371 17.721 19.535-1.3e-4 35.371-7.934 35.371-17.721z" fill="url(#radialGradient13581)" opacity=".322"/>
 </g>
</svg>
